<mxfile host="app.diagrams.net">
  <diagram id="IoTProject" name="Fluxograma IoT">
    <mxGraphModel dx="1280" dy="720" grid="1" gridSize="10" guides="1" tooltips="1" connect="1" arrows="1" fold="1" page="1" pageScale="1" pageWidth="1920" pageHeight="1080" math="0" shadow="0">
      <root>
        <mxCell id="0" />
        <mxCell id="1" parent="0" />

        <!-- Início -->
        <mxCell id="start" value="Início" style="ellipse;fill=#d5e8d4;stroke=#82b366;" vertex="1" parent="1">
          <mxGeometry x="100" y="50" width="120" height="60" as="geometry" />
        </mxCell>

        <!-- Conectar WiFi -->
        <mxCell id="wifi" value="Conectar WiFi" style="rounded=1;fill=#dae8fc;stroke=#6c8ebf;" vertex="1" parent="1">
          <mxGeometry x="100" y="150" width="160" height="60" as="geometry" />
        </mxCell>

        <!-- Conectar MQTT -->
        <mxCell id="mqtt" value="Conectar Broker MQTT" style="rounded=1;fill=#dae8fc;stroke=#6c8ebf;" vertex="1" parent="1">
          <mxGeometry x="100" y="250" width="200" height="60" as="geometry" />
        </mxCell>

        <!-- Inicializar Sensores -->
        <mxCell id="sensors" value="Inicializar Sensores (DHT22 + MPU6050)" style="rounded=1;fill=#fff2cc;stroke=#d6b656;" vertex="1" parent="1">
          <mxGeometry x="100" y="350" width="280" height="60" as="geometry" />
        </mxCell>

        <!-- Loop Principal -->
        <mxCell id="loop" value="Loop Principal" style="ellipse;fill=#f8cecc;stroke=#b85450;" vertex="1" parent="1">
          <mxGeometry x="100" y="460" width="160" height="60" as="geometry" />
        </mxCell>

        <!-- Verificar Conexão -->
        <mxCell id="checkConn" value="MQTT conectado?" style="rhombus;fill=#ffe6cc;stroke=#d79b00;" vertex="1" parent="1">
          <mxGeometry x="450" y="460" width="160" height="80" as="geometry" />
        </mxCell>

        <!-- Ler BPM/SpO2 -->
        <mxCell id="dht" value="Ler BPM / SpO₂ (DHT22)" style="rounded=1;fill=#e1d5e7;stroke=#9673a6;" vertex="1" parent="1">
          <mxGeometry x="100" y="580" width="220" height="60" as="geometry" />
        </mxCell>

        <!-- Publicar BPM/SpO2 -->
        <mxCell id="pubDht" value="Publicar MQTT: /attrs/bpm, /attrs/spo2" style="rounded=1;fill=#e1d5e7;stroke=#9673a6;" vertex="1" parent="1">
          <mxGeometry x="100" y="670" width="280" height="60" as="geometry" />
        </mxCell>

        <!-- Ler MPU -->
        <mxCell id="mpu" value="Ler Aceleração (MPU6050)" style="rounded=1;fill=#f5f5f5;stroke=#666666;" vertex="1" parent="1">
          <mxGeometry x="100" y="770" width="240" height="60" as="geometry" />
        </mxCell>

        <!-- Calcular velocidade -->
        <mxCell id="vel" value="Calcular Velocidade (X, Y, Z)" style="rounded=1;fill=#f5f5f5;stroke=#666666;" vertex="1" parent="1">
          <mxGeometry x="100" y="860" width="240" height="60" as="geometry" />
        </mxCell>

        <!-- Publicar Velocidade -->
        <mxCell id="pubVel" value="Publicar MQTT: /attrs/velocidadeX, /attrs/velocidadeY, /attrs/velocidadeZ" style="rounded=1;fill=#f5f5f5;stroke=#666666;" vertex="1" parent="1">
          <mxGeometry x="100" y="950" width="400" height="60" as="geometry" />
        </mxCell>

        <!-- Retorno Loop -->
        <mxCell id="backLoop" value="Retorna ao Loop" style="ellipse;fill=#d5e8d4;stroke=#82b366;" vertex="1" parent="1">
          <mxGeometry x="100" y="1050" width="160" height="60" as="geometry" />
        </mxCell>

        <!-- Conectores -->
        <mxCell id="e1" edge="1" parent="1" source="start" target="wifi"><mxGeometry relative="1" as="geometry"/></mxCell>
        <mxCell id="e2" edge="1" parent="1" source="wifi" target="mqtt"><mxGeometry relative="1" as="geometry"/></mxCell>
        <mxCell id="e3" edge="1" parent="1" source="mqtt" target="sensors"><mxGeometry relative="1" as="geometry"/></mxCell>
        <mxCell id="e4" edge="1" parent="1" source="sensors" target="loop"><mxGeometry relative="1" as="geometry"/></mxCell>
        <mxCell id="e5" edge="1" parent="1" source="loop" target="checkConn"><mxGeometry relative="1" as="geometry"/></mxCell>
        <mxCell id="e6" edge="1" parent="1" source="checkConn" target="dht"><mxGeometry relative="1" as="geometry"/></mxCell>
        <mxCell id="e7" edge="1" parent="1" source="dht" target="pubDht"><mxGeometry relative="1" as="geometry"/></mxCell>
        <mxCell id="e8" edge="1" parent="1" source="pubDht" target="mpu"><mxGeometry relative="1" as="geometry"/></mxCell>
        <mxCell id="e9" edge="1" parent="1" source="mpu" target="vel"><mxGeometry relative="1" as="geometry"/></mxCell>
        <mxCell id="e10" edge="1" parent="1" source="vel" target="pubVel"><mxGeometry relative="1" as="geometry"/></mxCell>
        <mxCell id="e11" edge="1" parent="1" source="pubVel" target="backLoop"><mxGeometry relative="1" as="geometry"/></mxCell>
        <mxCell id="e12" edge="1" parent="1" source="backLoop" target="loop"><mxGeometry relative="1" as="geometry"/></mxCell>

      </root>
    </mxGraphModel>
  </diagram>
</mxfile>
